<svg xmlns="http://www.w3.org/2000/svg" viewBox="0 0 200 200">
  <defs>
    <linearGradient id="bar2" x1="0" y1="0" x2="1" y2="0">
      <stop offset="0" stop-color="#0f1c45"/>
      <stop offset=".5" stop-color="#3a4f8a"/>
      <stop offset="1" stop-color="#1C2B54"/>
    </linearGradient>
  </defs>
  <!-- Marco superior -->
  <rect x="22" y="40" width="156" height="11" rx="2" fill="url(#bar2)"/>
  <!-- Marco inferior -->
  <rect x="22" y="160" width="156" height="11" rx="2" fill="url(#bar2)"/>
  <!-- Hoja izq -->
  <g>
    <rect x="22" y="51" width="11" height="109" fill="url(#bar2)"/>
    <rect x="89" y="51" width="11" height="109" fill="url(#bar2)"/>
    <!-- Barrotes verticales -->
    <rect x="40" y="55" width="6" height="100" rx="1" fill="#1C2B54"/>
    <rect x="55" y="55" width="6" height="100" rx="1" fill="#1C2B54"/>
    <rect x="70" y="55" width="6" height="100" rx="1" fill="#1C2B54"/>
    <!-- Travesaño centro -->
    <rect x="33" y="100" width="67" height="6" fill="#1C2B54"/>
  </g>
  <!-- Hoja der -->
  <g>
    <rect x="100" y="51" width="11" height="109" fill="url(#bar2)"/>
    <rect x="167" y="51" width="11" height="109" fill="url(#bar2)"/>
    <rect x="120" y="55" width="6" height="100" rx="1" fill="#1C2B54"/>
    <rect x="135" y="55" width="6" height="100" rx="1" fill="#1C2B54"/>
    <rect x="150" y="55" width="6" height="100" rx="1" fill="#1C2B54"/>
    <rect x="111" y="100" width="56" height="6" fill="#1C2B54"/>
  </g>
  <!-- Etiqueta PTR -->
  <g transform="translate(82,15)">
    <rect width="36" height="20" rx="3" fill="#F08018"/>
    <text x="18" y="14" font-family="Inter,Arial,sans-serif" font-weight="800" font-size="11" fill="#fff" text-anchor="middle">PTR</text>
  </g>
</svg>
